<?xml version="1.0" encoding="UTF-8"?>
<svg enable-background="new 0 0 1080 1920" version="1.1" viewBox="220 430 500 550" xml:space="preserve" xmlns="http://www.w3.org/2000/svg">
    <path d="m449.05 718.91c0.56403 1.6967 1.7773 3.4675 1.5933 5.0787-2.2339 19.551-3.3711 39.018 3.4159 58.012 7.1396 19.981 29.663 29.026 48.73 19.642 10.505-5.17 19.77-11.931 28.295-20.055 19.466-18.552 35.316-39.728 47.857-63.423 4.5621-8.6193 8.5811-17.525 13.086-26.177 0.6972-1.3391 2.6083-2.7178 4.0739-2.8569 4.0916-0.38794 8.2439-0.13483 12.378-1.063h-14.349c4.7549-14.331 9.3501-28.182 13.975-42.122 24.617 1.4944 83.092 20.777 102.71 33.022-11.814 40.24-30.936 76.751-57.007 109.59-8.1078 10.211-16.357 20.464-25.685 29.52-19.946 19.367-41.955 36.149-67.169 48.288-18.299 8.8099-37.344 15.799-57.505 18.393-14.052 1.8083-28.412 2.5947-42.552 1.9683-14.525-0.64362-28.215-5.5806-40.918-13.117-10.667-6.3286-20.718-13.357-29.227-22.389-17.254-18.314-28.432-39.966-34.634-64.249-0.32483-1.2717 0.40387-2.8126 1.0801-4.7426 9.7897-8.5485 18.581-17.382 28.624-24.431 15.405-10.813 31.618-20.485 47.606-30.452 5.0123-3.1246 10.405-5.6392 15.623-8.433z" fill="#FF6A02"/>
    <path d="m368.94 554.91c-1.6705 2.6805-3.249 5.4236-5.0255 8.0319-19.802 29.076-35.7 60.068-45.901 93.826-2.3003 7.6124-3.8174 15.468-6.2798 23.021-0.86762 2.6613-3.0804 5.2829-5.3653 7.0195-16.865 12.817-32.158 27.221-46.694 42.663-14.056 14.931-26.686 30.852-38.462 47.543-1.6531 2.343-3.2144 4.7509-4.8182 7.1286-0.52165-0.098999-1.0433-0.19806-1.565-0.29712-0.2444-10.111-1.204-20.269-0.5294-30.318 0.65718-9.7895 2.9622-19.471 4.5873-29.192 2.4288-14.529 8.4339-27.832 14.524-41.041 9.2459-20.051 22.386-37.486 36.794-54.116 16.707-19.284 36.837-34.483 57.577-48.876 13.059-9.0637 26.972-16.899 40.848-25.31 0.34668-0.024842 0.31042-0.082703 0.31042-0.082703z" fill="#FF8E0F"/>
    <path d="m407.01 631c-13.882 5.7715-27.373 11.469-41.742 17.537 3.4915-9.7261 6.53-19.302 10.332-28.564 9.7716-23.806 21.499-46.612 36.39-67.674 4.5566-6.4452 9.2535-12.824 14.355-18.835 2.0092-2.3671 5.083-4.5688 8.0447-5.2685 18.273-4.3172 36.575-8.5943 55.023-12.052 11.76-2.2043 23.789-2.9734 36.504-4.4818-4.2453 6.446-8.2501 12.099-11.816 18.017-14.538 24.124-26.846 49.354-35.942 76.02-1.8911 5.5445-4.8855 7.4555-10.126 8.3784-20.742 3.6524-40.927 9.4121-61.023 16.924z" fill="#FF8E0E"/>
    <path d="m710.95 594.13c6.4251 17.791 6.6051 35.833 5.8347 54.611-32.831-16.551-66.882-28.425-103.31-35.312 0.49805-5.2285 1.4557-10.543 1.4293-15.852-0.096557-19.424-1.086-38.729-10.341-56.516-7.0099-13.472-17.186-23.372-32.705-28.889 6.4884 0.31488 12.017 0.00586 17.321 0.95154 14.437 2.5736 28.764 5.756 43.163 8.5497 14.175 2.7504 26.697 9.2711 38.031 17.745 17.641 13.189 31.237 29.802 39.173 50.643 0.46393 1.2183 0.91016 2.4432 1.4027 4.0684z" fill="#FF8E0E"/>
    <path d="m281.93 887.1c-3.8421-1.7352-7.9867-3.0063-11.477-5.2816-20.96-13.664-32.878-34.297-43.655-56.074-4.8372-9.7751-3.7419-16.703 2.8406-25.426 16.218-21.493 34.01-41.442 53.535-59.878 6.6313-6.2616 13.946-11.8 21.76-18.349 0 15.159-0.27905 29.14 0.066681 43.107 0.49414 19.961 6.8477 38.471 14.977 56.461 0.063385 0.14026 0.018067 0.32965-0.090759 1.1944-5.9653 9.0878-12.384 17.145-17.531 25.946-7.2994 12.48-13.663 25.507-20.426 38.301z" fill="#FF8E0E"/>
    <path d="m449.21 718.57c-5.3792 3.1361-10.772 5.6507-15.784 8.7753-15.988 9.9668-32.201 19.639-47.606 30.452-10.043 7.049-18.834 15.882-28.485 24.057-1.2619-1.0888-2.8779-2.222-3.0769-3.5651-0.96161-6.4907-2.1311-13.037-2.141-19.565-0.024169-15.938 0.29395-31.888 1.0014-47.81 0.31769-7.1507 1.7927-14.263 3.0102-21.347 0.19202-1.1174 1.6363-2.3051 2.789-2.9302 31.266-16.956 64.248-29.419 98.872-37.533 2.0534-0.4812 4.1729-0.68066 6.7726-1.0921-2.0151 8.7217-4.2591 17.214-5.8998 25.821-2.4446 12.825-4.3947 25.744-6.7345 38.59-0.3685 2.0232-1.6815 3.8744-2.7185 6.1472z" fill="#FF8E0E"/>
    <path d="m281.97 887.47c6.7224-13.162 13.086-26.19 20.385-38.67 5.1476-8.8009 11.566-16.858 17.552-25.568 3.7261 4.8853 7.216 10.164 10.926 15.282 13.68 18.873 32.068 30.976 54.291 37.513 1.3531 0.39795 2.6687 0.92346 4.625 1.6076-7.0616 7.1075-15.144 11.421-23.987 14.653-12.757 4.6629-26.049 6.8198-39.443 6.5013-14.001-0.33288-27.913-2.5829-40.816-8.7354-1.2353-0.58899-2.3313-1.47-3.5327-2.5844z" fill="#f60"/>
    <path d="m369 555c0.16306-0.18323 0.3053-0.39349 0.44754-0.60376-0.019653 0.27905-0.039368 0.55817-0.28183 0.67804-0.22275-0.15918-0.18649-0.10132-0.16571-0.07428z" fill="#FF8E0F"/>
</svg>
